<?xml version="1.0" encoding="utf-8"?>
<!-- Generator: Adobe Illustrator 16.0.0, SVG Export Plug-In . SVG Version: 6.00 Build 0)  -->
<!DOCTYPE svg PUBLIC "-//W3C//DTD SVG 1.1//EN" "http://www.w3.org/Graphics/SVG/1.1/DTD/svg11.dtd">
<svg version="1.1" id="Layer_1" xmlns="http://www.w3.org/2000/svg" xmlns:xlink="http://www.w3.org/1999/xlink" x="0px" y="0px"
	 width="40px" height="40px" viewBox="0 0 512 512" enable-background="new 0 0 512 512" xml:space="preserve">
<style type="text/css">
  .st0{fill:#2196F3;}
</style>
<path class="st0" d="M256,0C167.641,0,96,71.625,96,160c0,24.75,5.625,48.219,15.672,69.125C112.234,230.313,256,512,256,512l142.594-279.375
	C409.719,210.844,416,186.156,416,160C416,71.625,344.375,0,256,0z M256,256c-53.016,0-96-43-96-96s42.984-96,96-96
	c53,0,96,43,96,96S309,256,256,256z"/>
<path style="st0" d="M233.333,160c-4.703,4.703-69.124,65.807-106.666,101.395v125.272h80v-100
    h66.666v100h80V261.189C314.309,224.083,246.667,160,246.667,160S240,153.333,233.333,160z M353.333,120
    c0-7.363-5.97-13.333-13.333-13.333h-26.667c-7.363,0-13.333,5.97-13.333,13.333v11.562
    c16.895,16.159,35.998,34.396,53.333,50.932V120z M406.667,246.667c0,0-140-133.334-153.334-146.667
    c-13.333-13.333-26.666,0-26.666,0S80,240,73.333,246.667c-6.666,6.666,0,13.333,0,13.333s6.667,6.667,13.334,13.333
    c6.666,6.667,13.333,0,13.333,0s126.667-120,133.333-126.666c6.667-6.667,13.334,0,13.334,0s126.666,120,133.333,126.666
    c6.667,6.667,13.333,0,13.333,0s0,0,13.334-13.333C413.333,253.333,406.667,246.667,406.667,246.667z"/>
</svg>
