<?xml version="1.0" encoding="utf-8"?>
<!-- Generator: Adobe Illustrator 17.0.0, SVG Export Plug-In . SVG Version: 6.00 Build 0)  -->
<!DOCTYPE svg PUBLIC "-//W3C//DTD SVG 1.1//EN" "http://www.w3.org/Graphics/SVG/1.1/DTD/svg11.dtd">
<svg version="1.1" xmlns="http://www.w3.org/2000/svg" xmlns:xlink="http://www.w3.org/1999/xlink" x="0px" y="0px" width="40px"
	 height="40px" viewBox="0 0 40 40" enable-background="new 0 0 40 40" xml:space="preserve">
<g id="Capa_2">
	<circle fill="#FFFFFF" cx="20.092" cy="12.734" r="7.713"/>
</g>
<g id="Layer_1">
	<path fill="#2196F3" d="M20,0C13.097,0,7.5,5.596,7.5,12.5c0,1.934,0.439,3.767,1.224,5.4C8.768,17.993,20,40,20,40l11.14-21.826
		c0.869-1.702,1.36-3.63,1.36-5.674C32.5,5.596,26.904,0,20,0z M20,20c-4.142,0-7.5-3.359-7.5-7.5S15.858,5,20,5
		c4.141,0,7.5,3.359,7.5,7.5S24.141,20,20,20z"/>
</g>
<g id="Capa_3">
	<path fill="#000000" d="M19.77,9.398c-0.162,0.162-2.381,2.267-3.674,3.493v4.315h2.756v-3.445h2.296v3.445h2.756v-4.322
		c-1.344-1.278-3.674-3.485-3.674-3.485S20,9.169,19.77,9.398z M23.904,8.02c0-0.254-0.206-0.459-0.459-0.459h-0.919
		c-0.254,0-0.459,0.206-0.459,0.459v0.398c0.582,0.557,1.24,1.185,1.837,1.754V8.02z M25.741,12.383c0,0-4.822-4.593-5.282-5.052
		c-0.459-0.459-0.919,0-0.919,0s-5.052,4.822-5.282,5.052c-0.23,0.23,0,0.459,0,0.459s0.23,0.23,0.459,0.459
		c0.23,0.23,0.459,0,0.459,0s4.363-4.133,4.593-4.363c0.23-0.23,0.459,0,0.459,0s4.363,4.133,4.593,4.363c0.23,0.23,0.459,0,0.459,0
		s0,0,0.459-0.459C25.97,12.613,25.741,12.383,25.741,12.383z"/>
</g>
</svg>
