<?xml version="1.0" encoding="utf-8"?>
<!-- Generator: Adobe Illustrator 19.2.1, SVG Export Plug-In . SVG Version: 6.00 Build 0)  -->
<svg version="1.1" id="Capa_1" xmlns="http://www.w3.org/2000/svg" xmlns:xlink="http://www.w3.org/1999/xlink" x="0px" y="0px"
	 viewBox="0 0 800 800" style="enable-background:new 0 0 800 800;" xml:space="preserve">
<style type="text/css">
	.st0{fill:#FFFFFF;stroke:#000000;stroke-width:16;stroke-miterlimit:10;}
	.st1{fill:#FFFFFF;stroke:#000000;stroke-width:8;stroke-miterlimit:10;}
	.st2{fill:#FFFFFF;}
	.st3{fill:#FFFFFF;stroke:#FFFFFF;stroke-width:3;stroke-miterlimit:10;}
</style>
<g>
	<circle class="st0" cx="400" cy="400" r="391.3"/>
	<circle class="st1" cx="400" cy="400" r="292.7"/>
	<g>
		<circle cx="59.2" cy="400" r="30.6"/>
		<circle cx="739.6" cy="400" r="30.6"/>
	</g>
</g>
<g>
	<polygon points="648.7,184.7 401.3,214.7 372.6,230.1 422.1,420.6 221.4,458.3 224.4,513.6 443.1,704.1 678.6,495.6 	"/>
	<path class="st2" d="M441.9,415.2c0,0,219.7,49.9,215.2,52.4c-4.5,2.6-30-248-30-248l-229.5,25.5L441.9,415.2z"/>
	<g>
		<line class="st3" x1="623.1" y1="498.6" x2="443.3" y2="638"/>
		<line class="st3" x1="443.3" y1="638" x2="231" y2="467.6"/>
		<line class="st3" x1="443.3" y1="638" x2="443.3" y2="691.3"/>
	</g>
</g>
<g>
	<g>
		<path d="M578,660.1c6.4,8.9,12.8,17.7,19.2,26.6c-1.3-10.5-3-20.8-5-31c2.5-2,5.1-4.1,7.6-6.2c9.6,4,19.4,7.7,29.4,11
			c-7.4-8-14.8-16.1-22.2-24.1c3.3-3,6.5-6.1,9.7-9.3c11.9,11.9,23.8,23.8,35.7,35.7c-4.5,4.5-9.1,8.9-13.8,13.1
			c-11.3-3.3-22.2-7.1-32.9-11.4c2,11.3,3.5,22.8,4.6,34.4c-5,3.6-10,7.2-15.1,10.5c-9.3-14.1-18.5-28.1-27.8-42.2
			C571,665,574.5,662.6,578,660.1z"/>
		<path d="M497.4,724.2c-3.9-12.8,2.8-23.5,17.1-29.4c14.3-5.9,27.1-3.3,33.3,8.6c4.4,8.7,8.9,17.3,13.3,26
			c-4.9,2.5-9.9,4.9-14.9,7.2c-4-8.9-8.1-17.7-12.1-26.6c-2.9-6.2-9.2-7.9-15.6-5.2c-6.3,2.6-9.3,8.1-6.9,14.5
			c3.4,9.1,6.8,18.3,10.2,27.4c-5.1,1.9-10.2,3.7-15.4,5.3C503.4,742.7,500.4,733.4,497.4,724.2z"/>
		<path d="M421,717.9c9.2,9.6,19.3,18.8,30.1,27.5c-1.7-10.2-3.4-20.4-5-30.6c4.3-0.7,8.6-1.5,12.9-2.4c3.4,16.5,6.8,32.9,10.3,49.4
			c-4.7,1-9.4,1.8-14.1,2.6c-11.4-8.6-22-17.8-31.8-27.3c0.9,10.3,1.8,20.7,2.6,31c-5,0.4-10,0.7-15.1,1
			c-0.7-16.8-1.5-33.6-2.2-50.4C412.8,718.5,416.9,718.2,421,717.9z"/>
		<path d="M344.4,765.8c-20.1-2.8-31.2-16.3-27.5-30.8c3.7-14.5,17.8-21.5,35.1-19.1c7.6,1.1,15.3,1.8,22.9,2.3
			c-1.1,16.8-2.2,33.5-3.2,50.3C362.5,768,353.5,767.1,344.4,765.8z M359.9,727.3c-3.4-0.4-6.8-0.8-10.2-1.3
			c-8.7-1.2-16,3.5-17.7,12.2c-1.7,8.7,4.3,16.2,14.2,17.6c3.5,0.5,7,0.9,10.5,1.3C357.7,747.1,358.8,737.2,359.9,727.3z"/>
		<path d="M237.5,700.8c6.4-11.7,19-14.3,33.2-8.1c14.2,6.1,21,17.1,16.9,29.8c-3.1,9.2-6.3,18.5-9.4,27.7
			c-5.2-1.7-10.3-3.6-15.4-5.6c3.5-9.1,7.1-18.2,10.6-27.2c2.5-6.4-0.7-12.1-7.1-14.8c-6.3-2.7-12.3-1-15.3,5.1
			c-4.2,8.8-8.4,17.6-12.6,26.4c-4.9-2.4-9.8-4.8-14.7-7.4C228.3,718,232.9,709.4,237.5,700.8z"/>
		<path d="M202.3,664.3c3-1.6,6-3.3,8.9-5c4,2.9,8.1,5.8,12.3,8.5c-16,9.6-33.1,18.1-50.9,25.5c-4.6-3.6-9.2-7.3-13.6-11.1
			c3.7-18.9,8.6-37.4,14.6-55.1c3.8,3.8,7.6,7.5,11.6,11c-1,3.2-2,6.5-3,9.8C188.6,653.7,195.4,659.2,202.3,664.3z M174.1,678.4
			c6.4-2.8,12.6-5.8,18.7-9c-4.7-3.6-9.2-7.3-13.8-11.2C177.3,664.9,175.6,671.6,174.1,678.4z"/>
	</g>
</g>
<g>
	<g>
		<path d="M210,142.4c-6.4-8.9-12.8-17.7-19.2-26.6c1.3,10.5,3,20.8,5,31c-2.5,2-5.1,4.1-7.6,6.2c-9.6-4-19.4-7.7-29.4-11
			c7.4,8,14.8,16.1,22.2,24.1c-3.3,3-6.5,6.1-9.7,9.3c-11.9-11.9-23.8-23.8-35.7-35.7c4.5-4.5,9.1-8.9,13.8-13.1
			c11.3,3.3,22.2,7.1,32.9,11.4c-2-11.3-3.5-22.8-4.6-34.4c5-3.6,10-7.2,15.1-10.5c9.3,14.1,18.5,28.1,27.8,42.2
			C217,137.4,213.5,139.8,210,142.4z"/>
		<path d="M290.6,78.3c3.9,12.8-2.8,23.5-17.1,29.4c-14.3,5.9-27.1,3.3-33.3-8.6c-4.4-8.7-8.9-17.3-13.3-26
			c4.9-2.5,9.9-4.9,14.9-7.2c4,8.9,8.1,17.7,12.1,26.6c2.9,6.2,9.2,7.9,15.6,5.2c6.3-2.6,9.3-8.1,6.9-14.5
			c-3.4-9.1-6.8-18.3-10.2-27.4c5.1-1.9,10.2-3.7,15.4-5.3C284.6,59.7,287.6,69,290.6,78.3z"/>
		<path d="M367,84.6c-9.2-9.6-19.3-18.8-30.1-27.5c1.7,10.2,3.4,20.4,5,30.6c-4.3,0.7-8.6,1.5-12.9,2.4
			c-3.4-16.5-6.8-32.9-10.3-49.4c4.7-1,9.4-1.8,14.1-2.6c11.4,8.6,22,17.8,31.8,27.3c-0.9-10.3-1.8-20.7-2.6-31c5-0.4,10-0.7,15.1-1
			c0.7,16.8,1.5,33.6,2.2,50.4C375.2,84,371.1,84.2,367,84.6z"/>
		<path d="M443.6,36.6c20.1,2.8,31.2,16.3,27.5,30.8c-3.7,14.5-17.8,21.5-35.1,19.1c-7.6-1.1-15.3-1.8-22.9-2.3
			c1.1-16.8,2.2-33.5,3.2-50.3C425.5,34.4,434.5,35.4,443.6,36.6z M428.1,75.2c3.4,0.4,6.8,0.8,10.2,1.3c8.7,1.2,16-3.5,17.7-12.2
			c1.7-8.7-4.3-16.2-14.2-17.6c-3.5-0.5-7-0.9-10.5-1.3C430.3,55.3,429.2,65.3,428.1,75.2z"/>
		<path d="M550.5,101.7c-6.4,11.7-19,14.3-33.2,8.1c-14.2-6.1-21-17.1-16.9-29.8c3.1-9.2,6.3-18.5,9.4-27.7
			c5.2,1.7,10.3,3.6,15.4,5.6c-3.5,9.1-7.1,18.2-10.6,27.2c-2.5,6.4,0.7,12.1,7.1,14.8c6.3,2.7,12.3,1,15.3-5.1
			c4.2-8.8,8.4-17.6,12.6-26.4c4.9,2.4,9.8,4.8,14.7,7.4C559.7,84.5,555.1,93.1,550.5,101.7z"/>
		<path d="M585.7,138.1c-3,1.6-6,3.3-8.9,5c-4-2.9-8.1-5.8-12.3-8.5c16-9.6,33.1-18.1,50.9-25.5c4.6,3.6,9.2,7.3,13.6,11.1
			c-3.7,18.9-8.6,37.4-14.6,55.1c-3.8-3.8-7.6-7.5-11.6-11c1-3.2,2-6.5,3-9.8C599.4,148.7,592.6,143.3,585.7,138.1z M613.9,124.1
			c-6.4,2.8-12.6,5.8-18.7,9c4.7,3.6,9.2,7.3,13.8,11.2C610.7,137.6,612.4,130.9,613.9,124.1z"/>
	</g>
</g>
</svg>
